<svg id="Layer_1" data-name="Layer 1" xmlns="http://www.w3.org/2000/svg" xmlns:xlink="http://www.w3.org/1999/xlink" viewBox="0 0 835.27 306.65"><defs><style>.cls-1{fill:#2f7598;}.cls-2{fill:url(#linear-gradient);}.cls-3{fill:#fff;}.cls-4{fill:url(#linear-gradient-2);}.cls-5{fill:url(#linear-gradient-3);}.cls-6{fill:url(#linear-gradient-4);}.cls-7{fill:none;}.cls-8{fill:url(#linear-gradient-5);}.cls-9{fill:url(#linear-gradient-6);}</style><linearGradient id="linear-gradient" x1="126.07" y1="248.08" x2="126.07" y2="365.58" gradientUnits="userSpaceOnUse"><stop offset="0" stop-color="#33b8aa"/><stop offset="1" stop-color="#2f7598"/></linearGradient><linearGradient id="linear-gradient-2" x1="348.31" y1="190.17" x2="348.31" y2="366.68" xlink:href="#linear-gradient"/><linearGradient id="linear-gradient-3" x1="6545.51" y1="317.93" x2="6545.51" y2="143.88" gradientTransform="matrix(-1, 0, 0, 1, 6911.55, 0)" gradientUnits="userSpaceOnUse"><stop offset="0.42" stop-color="#5db5e6" stop-opacity="0.3"/><stop offset="1" stop-color="#5e9dd5" stop-opacity="0.4"/></linearGradient><linearGradient id="linear-gradient-4" x1="6865.44" y1="115.53" x2="6780.34" y2="306.39" gradientTransform="matrix(-1, 0, 0, 1, 6911.55, 0)" gradientUnits="userSpaceOnUse"><stop offset="0.41" stop-color="#5db5e6" stop-opacity="0.4"/><stop offset="0.99" stop-color="#5e9dd5" stop-opacity="0.8"/></linearGradient><linearGradient id="linear-gradient-5" x1="159.4" y1="242.92" x2="159.4" y2="245.86" gradientUnits="userSpaceOnUse"><stop offset="0.24" stop-color="#33b8aa"/><stop offset="0.88" stop-color="#2d72ae"/></linearGradient><linearGradient id="linear-gradient-6" x1="235.09" y1="106.45" x2="235.09" y2="390.32" xlink:href="#linear-gradient-5"/></defs><title>logo âm</title><path class="cls-1" d="M443.16,394.67c-48.35-21.23-117.58-34.83-194.36-35.4-83.65-.62-158,14.35-206.09,38.2,54.79-17.17,128.56-27.39,209.82-26.79C324.45,371.22,390.67,380.15,443.16,394.67Z" transform="translate(-42.71 -90.82)"/><path class="cls-2" d="M132.43,300.82a7.34,7.34,0,1,1-7.34-7.34A7.35,7.35,0,0,1,132.43,300.82Zm28.27,49.64V251.2a12.58,12.58,0,0,1-7-3.12l-62.22,45.6v71.9a543.75,543.75,0,0,1,67.49-9.91l-36.48-25.18V313.16a12.63,12.63,0,1,1,5.28,0v14.56Z" transform="translate(-42.71 -90.82)"/><path class="cls-3" d="M122.45,309v4.15a12.59,12.59,0,0,0,5.28,0V309Z" transform="translate(-42.71 -90.82)"/><polygon class="cls-3" points="349.23 143.81 348.94 144.24 348.94 143.6 349.23 143.81"/><path class="cls-4" d="M385.92,237.2V366.68h-1c-20.53-4.88-45.83-8.74-74.25-11.24V342.33l37.18-36.57V278.35a12.63,12.63,0,1,0-5.29,0v25.19L310.7,334.92V194.19a12.64,12.64,0,0,0,6.9-4ZM352.58,266a7.35,7.35,0,1,0-7.35,7.34A7.35,7.35,0,0,0,352.58,266Z" transform="translate(-42.71 -90.82)"/><polygon class="cls-3" points="267.92 244.17 267.92 251.58 267.99 251.51 267.99 244.09 267.92 244.17"/><path class="cls-5" d="M310.49,157.07V143.88A186.66,186.66,0,0,1,386,204.77c1.95,2.68,3.83,5.4,5.64,8.19a185.11,185.11,0,0,1,29.92,101.19c0,1.26,0,2.52,0,3.78A176.55,176.55,0,0,0,310.49,157.07Z" transform="translate(-42.71 -90.82)"/><path class="cls-6" d="M49.62,314.15A186,186,0,0,1,160.7,143.88V166A176.79,176.79,0,0,0,75.28,369.6c-5.68,1.59-10.9,3.27-15.6,5A186,186,0,0,1,49.62,314.15Z" transform="translate(-42.71 -90.82)"/><path class="cls-7" d="M315.49,181.82a7.34,7.34,0,1,0-7.34,7.34,7.21,7.21,0,0,0,2.55-.47v-3.27l2.49,1.72A7.33,7.33,0,0,0,315.49,181.82Z" transform="translate(-42.71 -90.82)"/><path class="cls-8" d="M160.7,242.92l-2.61,1.91a7.36,7.36,0,0,0,2.61,1Z" transform="translate(-42.71 -90.82)"/><path class="cls-9" d="M236.28,166.79a7.34,7.34,0,1,1,7.34-7.34A7.35,7.35,0,0,1,236.28,166.79Zm-29.67,32.55a7.34,7.34,0,1,0-7.34,7.34A7.36,7.36,0,0,0,206.61,199.34Zm71.64,36.9a7.34,7.34,0,1,0-7.34,7.34A7.34,7.34,0,0,0,278.25,236.24Zm37.24-54.42a7.34,7.34,0,1,0-7.34,7.34,7.21,7.21,0,0,0,2.55-.47h0A7.12,7.12,0,0,0,312,188h0a8,8,0,0,0,1.16-.9h0A7.33,7.33,0,0,0,315.49,181.82Zm-20,0A12.66,12.66,0,0,0,304.85,194V354.45c-20.33-2.16-41.58-3.38-63.45-3.54h-2.47V325.43l34.62-43.85v-33a12.63,12.63,0,1,0-5.28,0v31.17L238.93,316.9V171.79a12.64,12.64,0,1,0-5.29,0V277l-31.73-36.38v-28.9a12.63,12.63,0,1,0-5.29,0v30.88l37,42.44V350.9H233a636.09,636.09,0,0,0-66.61,3.77V250.5a12.61,12.61,0,0,0,0-23.71V141.53l.07-.05.14-.06,69-50.6,69,50.6.15.06.06.05v28.11A12.66,12.66,0,0,0,295.52,181.82ZM169.37,238.64A7.34,7.34,0,1,1,162,231.3,7.35,7.35,0,0,1,169.37,238.64Z" transform="translate(-42.71 -90.82)"/><path class="cls-3" d="M162,248.63a9.68,9.68,0,0,1-1.33-.1v2.67a11.73,11.73,0,0,0,1.33.07,12.57,12.57,0,0,0,4.31-.77v-2.86A9.89,9.89,0,0,1,162,248.63Z" transform="translate(-42.71 -90.82)"/><path class="cls-3" d="M477.63,186.38l5-11.18c6.2,5,16.05,8.52,25.57,8.52,12.06,0,17.15-4.31,17.15-10.07,0-16.71-46-5.76-46-34.53,0-12.51,10-23.14,31.21-23.14,9.3,0,19,2.44,25.79,6.86L531.75,134a43.09,43.09,0,0,0-21.36-6.08c-11.95,0-16.82,4.64-16.82,10.51,0,16.49,45.93,5.76,45.93,34.2,0,12.4-10.07,23-31.32,23C496.11,195.68,484.05,191.91,477.63,186.38Z" transform="translate(-42.71 -90.82)"/><path class="cls-3" d="M625,194.57l-.11-51.36-25.46,42.5H593l-25.45-41.84v50.7H553.78V117.09h11.84l30.77,51.36,30.22-51.36h11.85l.11,77.48Z" transform="translate(-42.71 -90.82)"/><path class="cls-3" d="M709.74,176.64H671l-7.64,17.93H648.53l34.86-77.48h14.17l35,77.48h-15ZM705,165.35l-14.61-33.87-14.5,33.87Z" transform="translate(-42.71 -90.82)"/><path class="cls-3" d="M793.09,194.57l-15.83-22.69a27.17,27.17,0,0,1-3,.11H756.78v22.58H742.39V117.09h31.88c20.37,0,33,10.4,33,27.56,0,11.73-6,20.37-16.49,24.46l17.82,25.46ZM773.6,129.26H756.78v30.89H773.6c12.62,0,19.15-5.76,19.15-15.5S786.22,129.26,773.6,129.26Z" transform="translate(-42.71 -90.82)"/><path class="cls-3" d="M837.91,129.26H812.23V117.09H878v12.17H852.3v65.31H837.91Z" transform="translate(-42.71 -90.82)"/><path class="cls-3" d="M479.05,304.36c0-33.16,25.38-56.67,59.94-56.67,20.09,0,36.28,7.31,46.87,20.55L566.24,286c-6.85-8.25-15.26-12.77-25.69-12.77-17.91,0-30.36,12.46-30.36,31.14s12.45,31.14,30.36,31.14c10.43,0,18.84-4.51,25.69-12.77l19.62,17.75C575.27,353.72,559.08,361,539,361,504.43,361,479.05,337.53,479.05,304.36Z" transform="translate(-42.71 -90.82)"/><path class="cls-3" d="M608.12,249.87H639v109H608.12Z" transform="translate(-42.71 -90.82)"/><path class="cls-3" d="M692.67,274.31H659.19V249.87h97.62v24.44H723.49v84.55H692.67Z" transform="translate(-42.71 -90.82)"/><path class="cls-3" d="M832.64,319.78v39.08H801.81V319.31l-41.57-69.44h32.54l25.85,43.28,25.84-43.28h29.9Z" transform="translate(-42.71 -90.82)"/></svg>