<svg id="Layer_1" data-name="Layer 1" xmlns="http://www.w3.org/2000/svg" xmlns:xlink="http://www.w3.org/1999/xlink" viewBox="0 0 116.95 89.56"><defs><style>.cls-1{fill:#2f7598;}.cls-2{fill:url(#linear-gradient);}.cls-3{fill:#fff;}.cls-4{fill:url(#linear-gradient-2);}.cls-5{fill:url(#linear-gradient-3);}.cls-6{fill:url(#linear-gradient-4);}.cls-7{fill:none;}.cls-8{fill:url(#linear-gradient-5);}.cls-9{fill:url(#linear-gradient-6);}</style><linearGradient id="linear-gradient" x1="48.51" y1="72.77" x2="48.51" y2="107.09" gradientUnits="userSpaceOnUse"><stop offset="0" stop-color="#33b8aa"/><stop offset="1" stop-color="#2f7598"/></linearGradient><linearGradient id="linear-gradient-2" x1="113.41" y1="55.86" x2="113.41" y2="107.41" xlink:href="#linear-gradient"/><linearGradient id="linear-gradient-3" x1="6876.96" y1="93.17" x2="6876.96" y2="42.34" gradientTransform="matrix(-1, 0, 0, 1, 6995.55, 0)" gradientUnits="userSpaceOnUse"><stop offset="0.42" stop-color="#5db5e6" stop-opacity="0.3"/><stop offset="1" stop-color="#5e9dd5" stop-opacity="0.4"/></linearGradient><linearGradient id="linear-gradient-4" x1="6970.39" y1="34.06" x2="6945.54" y2="89.8" gradientTransform="matrix(-1, 0, 0, 1, 6995.55, 0)" gradientUnits="userSpaceOnUse"><stop offset="0.41" stop-color="#5db5e6" stop-opacity="0.4"/><stop offset="0.99" stop-color="#5e9dd5" stop-opacity="0.8"/></linearGradient><linearGradient id="linear-gradient-5" x1="58.24" y1="71.26" x2="58.24" y2="72.12" gradientUnits="userSpaceOnUse"><stop offset="0.24" stop-color="#33b8aa"/><stop offset="0.88" stop-color="#2d72ae"/></linearGradient><linearGradient id="linear-gradient-6" x1="80.35" y1="31.41" x2="80.35" y2="114.31" xlink:href="#linear-gradient-5"/></defs><title>logo mobile</title><path class="cls-1" d="M141.11,115.58c-14.12-6.2-34.34-10.17-56.76-10.34-24.43-.18-46.16,4.2-60.19,11.16,16-5,37.55-8,61.28-7.82C106.44,108.73,125.78,111.34,141.11,115.58Z" transform="translate(-24.16 -26.85)"/><path class="cls-2" d="M50.36,88.17A2.14,2.14,0,1,1,48.22,86,2.14,2.14,0,0,1,50.36,88.17Zm8.26,14.5v-29a3.63,3.63,0,0,1-2-.91L38.39,86.09v21a158.82,158.82,0,0,1,19.71-2.9L47.45,96.84V91.78a3.69,3.69,0,1,1,1.54,0V96Z" transform="translate(-24.16 -26.85)"/><path class="cls-3" d="M47.45,90.57v1.21a3.94,3.94,0,0,0,.77.08,3.87,3.87,0,0,0,.77-.08V90.57Z" transform="translate(-24.16 -26.85)"/><polygon class="cls-3" points="101.99 42 101.91 42.12 101.91 41.94 101.99 42"/><path class="cls-4" d="M124.4,69.6v37.81h-.29a152.33,152.33,0,0,0-21.68-3.28V100.3l10.86-10.68v-8a3.69,3.69,0,1,0-1.55,0V89l-9.31,9.16V57a3.65,3.65,0,0,0,2-1.17ZM114.66,78a2.15,2.15,0,1,0-2.15,2.14A2.15,2.15,0,0,0,114.66,78Z" transform="translate(-24.16 -26.85)"/><polygon class="cls-3" points="78.24 71.31 78.24 73.47 78.27 73.45 78.27 71.29 78.24 71.31"/><path class="cls-5" d="M102.37,46.19V42.34a54.55,54.55,0,0,1,22,17.78c.57.78,1.12,1.58,1.65,2.39a54.06,54.06,0,0,1,8.74,29.56c0,.37,0,.73,0,1.1A51.58,51.58,0,0,0,102.37,46.19Z" transform="translate(-24.16 -26.85)"/><path class="cls-6" d="M26.18,92.07A54.33,54.33,0,0,1,58.62,42.34v6.45a51.6,51.6,0,0,0-24.94,59.47q-2.51.7-4.56,1.47A54.34,54.34,0,0,1,26.18,92.07Z" transform="translate(-24.16 -26.85)"/><path class="cls-7" d="M103.83,53.42a2.15,2.15,0,1,0-2.15,2.14,2.32,2.32,0,0,0,.75-.13v-1l.73.5A2.14,2.14,0,0,0,103.83,53.42Z" transform="translate(-24.16 -26.85)"/><path class="cls-8" d="M58.62,71.26l-.76.56a2,2,0,0,0,.76.3Z" transform="translate(-24.16 -26.85)"/><path class="cls-9" d="M80.69,49a2.15,2.15,0,1,1,2.15-2.14A2.14,2.14,0,0,1,80.69,49ZM72,58.54a2.15,2.15,0,1,0-2.15,2.14A2.15,2.15,0,0,0,72,58.54ZM93,69.31a2.15,2.15,0,1,0-2.14,2.15A2.14,2.14,0,0,0,93,69.31Zm10.88-15.89a2.15,2.15,0,1,0-2.15,2.14,2.32,2.32,0,0,0,.75-.13h0a3.49,3.49,0,0,0,.39-.19h0a2.88,2.88,0,0,0,.34-.27h0A2.14,2.14,0,0,0,103.83,53.42Zm-5.84,0A3.7,3.7,0,0,0,100.72,57v46.86c-5.94-.63-12.14-1-18.53-1h-.72V95.36l10.11-12.8V72.92a3.69,3.69,0,1,0-1.54,0V82L81.47,92.87V50.49a3.69,3.69,0,1,0-1.55,0V81.21L70.66,70.58V62.14a3.69,3.69,0,1,0-1.55,0v9l10.81,12.4V102.8h-.2a188.85,188.85,0,0,0-19.45,1.1V73.48a3.69,3.69,0,0,0,0-6.93V41.65h0l0,0L80.49,26.85l20.17,14.77,0,0h0v8.21A3.7,3.7,0,0,0,98,53.42ZM61.15,70A2.14,2.14,0,0,1,59,72.16a1.72,1.72,0,0,1-.39,0,2,2,0,0,1-.76-.3A2.14,2.14,0,1,1,61.15,70Z" transform="translate(-24.16 -26.85)"/><path class="cls-3" d="M59,72.93a2.56,2.56,0,0,1-.39,0v.78a2.55,2.55,0,0,0,.39,0,3.79,3.79,0,0,0,1.26-.22v-.84A2.81,2.81,0,0,1,59,72.93Z" transform="translate(-24.16 -26.85)"/></svg>